HIERARCHY
ROOT Hips
{
  OFFSET 62.0712 39.0038 54.7907
  CHANNELS 6 Xposition Yposition Zposition Zrotation Xrotation Yrotation
  JOINT LeftHip
  {
    OFFSET 3.43 2.13163e-014 0
    CHANNELS 3 Zrotation Xrotation Yrotation
    JOINT LeftKnee
    {
      OFFSET -2.34479e-013 -18.47 -1.84741e-013
      CHANNELS 3 Zrotation Xrotation Yrotation
      JOINT LeftAnkle
      {
        OFFSET -2.11031e-012 -17.95 -2.33058e-012
        CHANNELS 3 Zrotation Xrotation Yrotation
        End Site
        {
          OFFSET 0 -3.12 0
        }
      }
    }
  }
  JOINT RightHip
  {
    OFFSET -3.43 1.42109e-014 0
    CHANNELS 3 Zrotation Xrotation Yrotation
    JOINT RightKnee
    {
      OFFSET -3.48166e-013 -18.47 -1.7053e-013
      CHANNELS 3 Zrotation Xrotation Yrotation
      JOINT RightAnkle
      {
        OFFSET -5.50671e-013 -17.95 -5.54223e-013
        CHANNELS 3 Zrotation Xrotation Yrotation
        End Site
        {
          OFFSET 0 -3.12 0
        }
      }
    }
  }
  JOINT Chest
  {
    OFFSET 7.10543e-015 4.57 -5.68434e-014
    CHANNELS 3 Zrotation Xrotation Yrotation
    JOINT Chest2
    {
      OFFSET 1.42109e-014 6.57 2.84217e-014
      CHANNELS 3 Zrotation Xrotation Yrotation
      JOINT LeftCollar
      {
        OFFSET 1.06 4.19 1.76
        CHANNELS 3 Zrotation Xrotation Yrotation
        JOINT LeftShoulder
        {
          OFFSET 5.81 2.84217e-014 -4.26326e-014
          CHANNELS 3 Zrotation Xrotation Yrotation
          JOINT LeftElbow
          {
            OFFSET -9.37916e-013 -12.08 -1.54898e-012
            CHANNELS 3 Zrotation Xrotation Yrotation
            JOINT LeftWrist
            {
              OFFSET -3.4138e-011 -9.82 -7.12674e-012
              CHANNELS 3 Zrotation Xrotation Yrotation
              End Site
              {
                OFFSET 0 -7.37 0
              }
            }
          }
        }
      }
      JOINT RightCollar
      {
        OFFSET -1.06 4.19 1.76
        CHANNELS 3 Zrotation Xrotation Yrotation
        JOINT RightShoulder
        {
          OFFSET -6.06 7.10543e-015 1.42109e-013
          CHANNELS 3 Zrotation Xrotation Yrotation
          JOINT RightElbow
          {
            OFFSET -3.33955e-013 -11.08 -2.84217e-014
            CHANNELS 3 Zrotation Xrotation Yrotation
            JOINT RightWrist
            {
              OFFSET -9.66693e-012 -9.82 -3.43903e-012
              CHANNELS 3 Zrotation Xrotation Yrotation
              End Site
              {
                OFFSET 0 -7.14001 0
              }
            }
          }
        }
      }
      JOINT Neck
      {
        OFFSET 2.84217e-014 4.05 0
        CHANNELS 3 Zrotation Xrotation Yrotation
        JOINT Head
        {
          OFFSET 9.9476e-014 5.19 8.52651e-014
          CHANNELS 3 Zrotation Xrotation Yrotation
          End Site
          {
            OFFSET 0 4.14001 0
          }
        }
      }
    }
  }
}
MOTION
Frames:	17
Frame Time:	0.0333333
62.0712 39.0038 54.7907 -7.16288 2.19617 -136.161 -9.3601 -2.86671 -8.77241 -0.933496 22.193 8.53185 3.33848 -13.4438 0.393585 -2.31761 -20.5796 -0.922585 -9.2666 64.5491 -1.35869 -4.86676 -5.29143 -0.225024 -2.40827 2.83035 -2.5621 -2.93157 4.30622 -3.44445 4.90021 -0.00169695 1.9485 16.8538 -11.6214 6.21232 -6.81137 -10.8546 -35.6206 6.75416 3.1392 -0.185289 -2.49273 0.190522 -4.34239 -18.7147 3.03832 -1.53473 9.98136 -14.8082 37.5846 -2.86611 -0.0330781 -0.000827507 1.89819 -5.69981 -1.1705 1.76508 -5.8789 -0.365023 
61.3115 39.0178 53.7599 -6.222 2.826 -134.539 -7.78515 -1.06015 -8.13508 -0.716746 22.1206 6.59161 3.47397 -14.3743 0.438205 -1.44629 -24.5974 -0.614822 -6.28749 59.0979 -6.19632 -5.15653 -7.42941 -0.335012 -1.62542 3.02351 -3.24648 -2.49453 4.51454 -4.2519 5.13719 0.00222243 1.85625 16.5087 -14.8903 5.54487 -6.92144 -12.3322 -34.9094 6.99256 3.05862 -0.186918 -2.5489 0.192464 -4.3512 -18.3803 3.90407 -1.69505 9.9253 -15.1205 37.3868 -2.62775 0.0825335 0.00189295 2.08564 -5.67162 -1.28224 1.77531 -5.74912 -0.275384 
60.5717 38.9701 52.7379 -5.52056 3.22538 -132.816 -6.44719 0.389434 -7.60967 -0.505549 22.6845 4.61213 3.54514 -16.4822 0.513619 -1.54171 -27.1373 -0.61052 -3.69603 49.803 -10.2943 -4.49793 -8.52125 -0.335264 -1.07396 3.21493 -3.88984 -2.20257 4.7083 -5.00627 5.39331 0.00598549 1.74376 16.15 -18.004 4.77189 -7.13892 -14.1196 -34.4419 7.05696 2.85662 -0.17618 -2.51272 0.190008 -4.40092 -18.0172 4.50232 -1.86735 9.74277 -15.0962 37.465 -2.55903 0.0498875 0.00111426 2.3163 -5.66506 -1.4033 1.81769 -5.73774 -0.2044 
59.8256 38.861 51.6989 -5.18666 3.34996 -131.115 -5.4425 2.06391 -7.25205 -0.259061 23.0931 2.65792 3.56775 -18.6266 0.585277 -2.43831 -27.8263 -0.830606 -2.11985 37.0001 -13.418 -3.29693 -8.81885 -0.2543 -0.829287 3.41744 -4.45112 -2.1185 4.91572 -5.64584 5.63155 0.00884524 1.60479 15.8201 -20.8348 3.96742 -7.41115 -16.0524 -34.3508 6.9846 2.4523 -0.149681 -2.4082 0.183937 -4.4915 -17.5857 4.84179 -2.07478 9.43904 -14.8519 37.5051 -2.53734 -0.0226325 -0.000501221 2.56775 -5.68921 -1.51032 1.8995 -5.87475 -0.144698 
59.0381 38.6867 50.5968 -5.25109 3.21987 -129.577 -4.67787 4.01301 -6.88368 -0.272141 23.2771 0.931273 3.68324 -20.7584 0.674844 -3.72294 -26.9345 -1.04613 -1.61526 22.6678 -15.293 -1.60109 -9.03795 -0.12655 -0.911494 3.60599 -4.8928 -2.21624 5.12099 -6.12367 5.82664 0.0105587 1.46357 15.5045 -23.2215 3.21587 -7.67292 -17.886 -34.6281 6.85569 1.90789 -0.11429 -2.27952 0.176682 -4.58426 -17.088 5.03232 -2.316 9.05386 -14.5203 37.3166 -2.4111 -0.00152827 -3.21609e-005 2.80148 -5.71924 -1.58196 2.01871 -6.10687 -0.0915537 
58.1668 38.4575 49.3673 -5.72867 2.82603 -128.338 -4.07849 6.5545 -6.38721 -0.612176 22.8122 -0.561743 3.85854 -22.7366 0.776078 -4.84448 -25.8951 -0.320505 -2.3111 11.6901 -16.1037 1.09952 -10.0591 0.0967702 -1.41564 3.69271 -5.18263 -2.39048 5.23113 -6.41861 5.95666 0.0113836 1.36347 15.1817 -24.9402 2.58955 -7.89291 -19.4151 -35.1538 6.77447 1.38606 -0.0820415 -2.15935 0.170333 -4.64614 -16.6398 5.26149 -2.54742 8.67374 -14.1568 37.1035 -2.1245 0.131056 0.00243002 2.97099 -5.70733 -1.59956 2.16219 -6.30453 -0.0373611 
57.2124 38.2046 47.9869 -6.10644 2.63043 -127.575 -3.08976 10.5754 -5.79861 -0.841702 20.5308 -2.09737 3.89009 -24.3498 0.839594 -5.11143 -26.6351 0.244672 -3.41743 10.749 -15.4842 3.80592 -13.782 0.460126 -1.75904 3.66441 -5.29695 -2.49155 5.19593 -6.53302 6.0144 0.0118751 1.34137 14.7922 -25.8361 2.12808 -8.0527 -20.5468 -35.7652 6.82046 1.0075 -0.0600388 -2.07222 0.166126 -4.6723 -16.3293 5.55951 -2.7231 8.36562 -13.7655 37.1606 -1.79063 0.247256 0.003864 3.0371 -5.60878 -1.5487 2.30943 -6.30851 0.0293236 
56.2591 38.0212 46.5375 -5.90202 3.00535 -127.257 -1.53976 14.4534 -5.13856 -0.74914 18.4269 -3.65075 3.773 -24.9221 0.834049 -4.19985 -26.5125 0.959709 -3.8446 13.2451 -15.4403 4.40699 -14.8722 0.575472 -1.42025 3.5918 -5.36349 -2.37462 5.03335 -6.48538 6.02912 0.0126466 1.40808 14.199 -25.9359 1.82498 -8.11021 -21.2747 -36.2925 7.00674 0.788238 -0.048258 -2.0546 0.16518 -4.68111 -16.1249 5.68634 -2.83706 8.12715 -13.3696 37.447 -1.62488 0.234989 0.00333232 2.98794 -5.39837 -1.42746 2.43004 -6.01383 0.119068 
55.2992 37.9518 45.002 -5.26002 3.7335 -127.37 0.21341 17.2299 -4.36851 -0.439297 18.4409 -4.60889 3.36949 -24.1798 0.721932 -2.72277 -25.0786 1.49565 -3.01255 13.6877 -15.9211 2.74376 -9.74381 0.233912 -0.720059 3.36968 -5.33902 -1.97349 4.6595 -6.30754 6.062 0.0143356 1.5467 13.3373 -25.0418 1.69965 -8.05967 -21.594 -36.6869 7.2726 0.677179 -0.0430357 -2.14302 0.168362 -4.6985 -16.0233 5.7303 -2.93054 7.95019 -13.0366 37.7332 -1.72908 0.124628 0.00188066 2.84404 -5.09163 -1.25236 2.50111 -5.43295 0.231905 
54.2892 38.0399 43.3497 -4.58281 4.39668 -127.881 2.06628 18.0688 -3.62902 -0.195006 22.0785 -4.75614 -1.29661 -22.0616 -0.252769 -1.10235 -23.2827 2.16816 -2.09041 14.2944 -15.731 2.07834 -3.44022 0.0624208 -0.247065 2.90461 -5.08679 -1.32598 4.03741 -6.03763 6.16339 0.0174645 1.72003 12.2562 -23.1049 1.78103 -7.92694 -21.4662 -36.9265 7.52606 0.629678 -0.0414155 -2.33418 0.175219 -4.74095 -16.0122 5.78129 -3.04653 7.81884 -12.8873 37.7879 -1.94109 0.050579 0.000856851 2.65339 -4.75485 -1.05911 2.51814 -4.69295 0.350855 
53.2256 38.2694 41.6114 -4.08224 4.88165 -128.684 3.6711 16.7408 -2.00573 -0.381491 29.2644 -4.34297 -5.18578 -16.0845 -0.733202 0.403737 -21.2281 2.92644 -1.35438 15.4288 -14.6378 2.2304 -0.287449 0.00559559 -0.155455 2.26257 -4.53251 -0.558767 3.27166 -5.70999 6.32864 0.0218221 1.88184 11.1899 -20.4241 2.09053 -7.75956 -20.8352 -37.016 7.68423 0.637389 -0.0428064 -2.56272 0.183294 -4.80621 -16.1226 5.80095 -3.17862 7.74497 -13.0431 37.6284 -1.96169 0.0905798 0.00155078 2.48087 -4.49007 -0.894137 2.4915 -3.9734 0.447084 
52.2339 38.3667 39.9609 -3.32433 5.56976 -129.28 5.23456 12.0271 -0.504385 0.0204258 41.0727 -2.75966 -8.03276 -5.32704 -0.374302 2.17755 -19.4898 3.70401 -0.576394 17.3843 -14.1451 1.29511 -1.66925 0.018868 0.274661 1.82223 -4.11975 0.16977 2.73998 -5.3452 6.50312 0.0262068 1.99757 10.6002 -17.876 2.61111 -7.56972 -19.6717 -36.9452 7.7096 0.693473 -0.0467272 -2.7434 0.189538 -4.87423 -16.4613 5.46188 -3.26116 7.768 -13.544 37.4135 -1.68907 0.158568 0.00233745 2.3821 -4.39111 -0.793161 2.43923 -3.42602 0.494103 
51.281 38.4777 38.3825 -2.8648 6.07293 -129.732 5.71041 6.73811 0.700034 1.29735 52.4776 0.00241835 -5.8517 4.16357 0.212894 3.52973 -17.7853 4.19934 0.358317 19.5648 -14.582 -0.410588 -4.83018 -0.0173171 0.47656 1.56159 -3.66553 0.688546 2.46905 -4.93699 6.63499 0.0293592 2.05734 10.5198 -15.5119 3.23339 -7.41911 -18.0144 -36.9771 7.62214 0.820146 -0.0546341 -2.84542 0.193085 -4.91653 -16.918 4.73476 -3.22566 7.92833 -14.2913 37.3329 -1.36517 0.14461 0.00172287 2.3773 -4.49421 -0.760273 2.37477 -3.11385 0.484776 
50.3854 38.6089 36.915 -2.75516 6.38895 -130.034 5.09757 1.27246 1.08303 3.89063 61.9119 2.8284 -4.8363 9.21476 0.389976 4.34952 -16.4737 4.41579 1.23025 22.2282 -15.3681 -0.750703 -7.07717 -0.0464231 0.495852 1.55485 -3.23353 0.906061 2.5203 -4.45262 6.72054 0.0311801 2.07627 10.9436 -13.4626 3.88285 -7.30313 -16.0498 -37.2254 7.482 1.01986 -0.0666859 -2.92426 0.196476 -4.9162 -17.354 3.53057 -3.05765 8.18532 -15.1042 37.3971 -1.37939 -0.0665642 -0.000801302 2.44168 -4.75641 -0.761716 2.30046 -3.0053 0.440153 
49.5357 38.7802 35.5698 -3.04913 6.44069 -130.395 3.54178 -4.04658 0.81304 6.76983 69.0318 4.07732 -2.63523 7.24366 0.166832 4.63876 -14.3301 4.42012 1.8067 23.2386 -15.5309 -1.11554 -8.83483 -0.08618 0.283304 1.75113 -2.74545 0.826518 2.82823 -3.85205 6.79434 0.0326281 2.08332 11.6772 -11.605 4.51609 -7.20958 -14.0993 -37.6517 7.35451 1.27519 -0.0819579 -3.07231 0.203398 -4.88272 -17.6584 1.8587 -2.7925 8.45089 -15.8201 37.5491 -1.92381 -0.444288 -0.00745961 2.5239 -5.07766 -0.740137 2.20545 -3.01395 0.406172 
48.7188 38.9608 34.3402 -3.65079 6.23354 -131.016 1.50509 -9.09807 0.0786434 7.92346 73.1367 3.81445 0.341353 1.67886 -0.00500148 4.6697 -11.8158 4.50244 1.75622 23.3581 -15.1974 -1.28381 -10.0449 -0.11283 -0.107696 2.06034 -2.16314 0.534398 3.27149 -3.11381 6.88221 0.0345961 2.10583 12.5111 -9.71966 5.12773 -7.14284 -12.501 -38.1084 7.2875 1.53012 -0.0974458 -3.33642 0.215264 -4.84128 -17.8411 -0.185699 -2.47299 8.67063 -16.3783 37.7491 -2.86756 -0.871261 -0.0218076 2.56653 -5.35507 -0.639892 2.07547 -3.05077 0.434015 
47.9142 39.1132 33.1979 -4.36622 5.84271 -131.996 -0.663073 -13.765 -1.03615 6.13114 73.7641 4.1125 1.95995 -3.1228 0.05343 4.91162 -9.3559 5.02996 0.705766 23.1791 -14.811 -0.983642 -10.7974 -0.0929609 -0.561804 2.39172 -1.50064 0.160807 3.72301 -2.25221 6.97257 0.0371406 2.15713 13.3116 -7.63825 5.73459 -7.10706 -11.444 -38.4662 7.29817 1.71156 -0.109162 -3.68043 0.230296 -4.79908 -18.0203 -2.43298 -2.13717 8.85653 -16.8538 37.9458 -3.89455 -1.25039 -0.0425143 2.52841 -5.53045 -0.432139 1.89576 -3.06162 0.558358 
